<svg id="svgQrWrapper" viewBox="0 0 300 300" xmlns="http://www.w3.org/2000/svg" xmlns:xlink="http://www.w3.org/1999/xlink" style="width: 100%; height: 100%; background-color: rgb(255, 255, 255);"><svg fill="none" xmlns="http://www.w3.org/2000/svg" width="300" height="300" viewBox="0 0 300 300"><g transform="translate(15, 5)"><path fill="#F9D6B2" d="M247.764 153.59l-11.483 3.845c-.051-10.65-1.422-17.906-2.492-27.486-.683-5.948.442-3.586 2.492-14.485 1.237-6.573-53.556 83.376-18.633-17.868 7.465-18.582 16.141-44.096 10.252-50.375-15.258-16.27-27.778 26.669-51.583 42.612-34.742 23.268-74.971 40.116-74.971 40.116-.256.045-6.26-15.571-6.901-16.852-3.191-6.844-4.98-5.921-9.785-11.778-5.561-6.707-20.921-12.103-29.13-8.727-8.673 3.567-6.636 11.214 0 20.505 9.612 13.456 11.912 19.348 11.912 31.488 0 9.291-2.941 16.695-2.941 32.073 0 15.379 8.971 37.486 8.971 37.486l-33.641 72.483h107.651l2.884-14.492s29.796-15.862 47.738-34.282c17.942-18.42 10.252-18.262 22.107-23.709 2.479-2.428 13.552-9.153 18.903-18.903 5.35-9.75 8.708-29.636 8.65-41.651z"/><path fill="#A556CB" d="M154.851 280.465L45.598 257.076l-9.932 29.476 119.185 1.922v-8.009z"/><path fill="#444B8C" d="M203.527 9.526L88.324 21.036a5.291 5.291 0 00-4.74 5.792l22.568 225.858a5.29 5.29 0 005.791 4.739l115.203-11.511a5.29 5.29 0 004.739-5.791L209.318 14.265a5.291 5.291 0 00-5.791-4.739z"/><path fill="#fff" d="M222.53 235.732a5.225 5.225 0 01-1.734 2.183 5.347 5.347 0 01-2.625 1.002l-49.674 4.904-49.756 4.87a5.355 5.355 0 01-3.877-1.15 5.175 5.175 0 01-1.913-3.509L92.397 40.742a5.15 5.15 0 011.174-3.813 5.329 5.329 0 013.57-1.884l46.215-4.564 53.209-5.234a5.382 5.382 0 012.057.194 5.316 5.316 0 011.824.954 5.2 5.2 0 011.313 1.568c.329.602.534 1.263.603 1.943l20.554 203.314a5.115 5.115 0 01-.386 2.512z"/><path fill="#F9D6B2" d="M209.558 118.303c-2.771-6.665 5.349-15.542 9.756-19.148 5.258-3.448 16.787-8.796 20.836-2.599 5.062 7.746 3.632 17.353-8.276 23.87-11.907 6.517-18.852 6.209-22.316-2.123z"/><path fill="#F9D6B2" d="M212.423 141.53c-2.82-7.021 5.056-16.209 9.346-19.925 5.132-3.541 16.414-8.984 20.487-2.437 5.091 8.183 3.814 18.228-7.824 24.892-11.638 6.663-18.483 6.246-22.009-2.53z"/><path fill="#F9D6B2" d="M218.143 165.976c-2.729-6.813 4.857-15.717 8.992-19.317 4.947-3.428 14.138-10.609 19.76-2.34 5.255 7.728 3.701 17.686-7.518 24.136-11.219 6.45-17.823 6.037-21.234-2.479z"/><circle cx="146.836" cy="22.659" r="2.795" fill="#E2A5FF" transform="rotate(-1.686 146.836 22.66)"/><g transform="translate(110, 83)scale(0.32)" fill="none"><svg width="300" height="300"><style>.background-color{ fill: transparent; }.dot-color{ fill: #000000; }.corners-square-color-0-0{ fill: #000000; }.corners-dot-color-0-0{ fill: #000000; }.corners-square-color-1-0{ fill: #000000; }.corners-dot-color-1-0{ fill: #000000; }.corners-square-color-0-1{ fill: #000000; }.corners-dot-color-0-1{ fill: #000000; }</style><defs/><g class="dot-color"><circle cx="10" cy="100" r="5" transform="rotate(0,10,100)"/><circle cx="10" cy="120" r="5" transform="rotate(0,10,120)"/><path d="M 5 145v 10h 5a 5 5, 0, 0, 0, 0 -10" transform="rotate(180,10,150)"/><path d="M 5 165v 10h 10a 10 10, 0, 0, 0, -10 -10" transform="rotate(-90,10,170)"/><rect x="5" y="175" width="10" height="10" transform="rotate(0,10,180)"/><rect x="5" y="185" width="10" height="10" transform="rotate(0,10,190)"/><path d="M 5 195v 10h 5a 5 5, 0, 0, 0, 0 -10" transform="rotate(90,10,200)"/><path d="M 15 125v 10h 10a 10 10, 0, 0, 0, -10 -10" transform="rotate(-90,20,130)"/><rect x="15" y="135" width="10" height="10" transform="rotate(0,20,140)"/><path d="M 15 145v 10h 10a 10 10, 0, 0, 0, -10 -10" transform="rotate(90,20,150)"/><rect x="15" y="165" width="10" height="10" transform="rotate(0,20,170)"/><path d="M 15 205v 10h 5a 5 5, 0, 0, 0, 0 -10" transform="rotate(180,20,210)"/><path d="M 25 85v 10h 5a 5 5, 0, 0, 0, 0 -10" transform="rotate(-90,30,90)"/><rect x="25" y="95" width="10" height="10" transform="rotate(0,30,100)"/><rect x="25" y="105" width="10" height="10" transform="rotate(0,30,110)"/><rect x="25" y="115" width="10" height="10" transform="rotate(0,30,120)"/><path d="M 25 125v 10h 10a 10 10, 0, 0, 0, -10 -10" transform="rotate(90,30,130)"/><path d="M 25 155v 10h 10a 10 10, 0, 0, 0, -10 -10" transform="rotate(-90,30,160)"/><rect x="25" y="165" width="10" height="10" transform="rotate(0,30,170)"/><rect x="25" y="175" width="10" height="10" transform="rotate(0,30,180)"/><rect x="25" y="185" width="10" height="10" transform="rotate(0,30,190)"/><rect x="25" y="195" width="10" height="10" transform="rotate(0,30,200)"/><path d="M 25 205v 10h 10a 10 10, 0, 0, 0, -10 -10" transform="rotate(90,30,210)"/><path d="M 35 115v 10h 5a 5 5, 0, 0, 0, 0 -10" transform="rotate(0,40,120)"/><path d="M 35 155v 10h 5a 5 5, 0, 0, 0, 0 -10" transform="rotate(0,40,160)"/><path d="M 35 185v 10h 10a 10 10, 0, 0, 0, -10 -10" transform="rotate(0,40,190)"/><path d="M 35 195v 10h 10a 10 10, 0, 0, 0, -10 -10" transform="rotate(90,40,200)"/><path d="M 45 85v 10h 10a 10 10, 0, 0, 0, -10 -10" transform="rotate(-90,50,90)"/><rect x="45" y="95" width="10" height="10" transform="rotate(0,50,100)"/><path d="M 45 105v 10h 5a 5 5, 0, 0, 0, 0 -10" transform="rotate(90,50,110)"/><path d="M 45 135v 10h 5a 5 5, 0, 0, 0, 0 -10" transform="rotate(180,50,140)"/><path d="M 45 165v 10h 5a 5 5, 0, 0, 0, 0 -10" transform="rotate(180,50,170)"/><circle cx="50" cy="210" r="5" transform="rotate(0,50,210)"/><rect x="55" y="85" width="10" height="10" transform="rotate(0,60,90)"/><path d="M 55 95v 10h 10a 10 10, 0, 0, 0, -10 -10" transform="rotate(90,60,100)"/><path d="M 55 125v 10h 10a 10 10, 0, 0, 0, -10 -10" transform="rotate(-90,60,130)"/><rect x="55" y="135" width="10" height="10" transform="rotate(0,60,140)"/><path d="M 55 145v 10h 10a 10 10, 0, 0, 0, -10 -10" transform="rotate(180,60,150)"/><rect x="55" y="165" width="10" height="10" transform="rotate(0,60,170)"/><path d="M 55 185v 10h 10a 10 10, 0, 0, 0, -10 -10" transform="rotate(-90,60,190)"/><path d="M 55 195v 10h 5a 5 5, 0, 0, 0, 0 -10" transform="rotate(90,60,200)"/><path d="M 65 85v 10h 5a 5 5, 0, 0, 0, 0 -10" transform="rotate(0,70,90)"/><path d="M 65 105v 10h 5a 5 5, 0, 0, 0, 0 -10" transform="rotate(180,70,110)"/><rect x="65" y="125" width="10" height="10" transform="rotate(0,70,130)"/><rect x="65" y="145" width="10" height="10" transform="rotate(0,70,150)"/><path d="M 65 165v 10h 5a 5 5, 0, 0, 0, 0 -10" transform="rotate(0,70,170)"/><rect x="65" y="185" width="10" height="10" transform="rotate(0,70,190)"/><path d="M 65 205v 10h 5a 5 5, 0, 0, 0, 0 -10" transform="rotate(180,70,210)"/><path d="M 75 105v 10h 5a 5 5, 0, 0, 0, 0 -10" transform="rotate(0,80,110)"/><path d="M 75 125v 10h 5a 5 5, 0, 0, 0, 0 -10" transform="rotate(0,80,130)"/><rect x="75" y="145" width="10" height="10" transform="rotate(0,80,150)"/><path d="M 75 175v 10h 5a 5 5, 0, 0, 0, 0 -10" transform="rotate(-90,80,180)"/><rect x="75" y="185" width="10" height="10" transform="rotate(0,80,190)"/><rect x="75" y="205" width="10" height="10" transform="rotate(0,80,210)"/><path d="M 85 15v 10h 5a 5 5, 0, 0, 0, 0 -10" transform="rotate(180,90,20)"/><path d="M 85 45v 10h 5a 5 5, 0, 0, 0, 0 -10" transform="rotate(180,90,50)"/><circle cx="90" cy="70" r="5" transform="rotate(0,90,70)"/><circle cx="90" cy="90" r="5" transform="rotate(0,90,90)"/><path d="M 85 135v 10h 10a 10 10, 0, 0, 0, -10 -10" transform="rotate(-90,90,140)"/><rect x="85" y="145" width="10" height="10" transform="rotate(0,90,150)"/><path d="M 85 165v 10h 5a 5 5, 0, 0, 0, 0 -10" transform="rotate(180,90,170)"/><path d="M 85 185v 10h 10a 10 10, 0, 0, 0, -10 -10" transform="rotate(0,90,190)"/><rect x="85" y="195" width="10" height="10" transform="rotate(0,90,200)"/><rect x="85" y="205" width="10" height="10" transform="rotate(0,90,210)"/><path d="M 85 215v 10h 10a 10 10, 0, 0, 0, -10 -10" transform="rotate(180,90,220)"/><path d="M 85 235v 10h 10a 10 10, 0, 0, 0, -10 -10" transform="rotate(-90,90,240)"/><path d="M 85 245v 10h 10a 10 10, 0, 0, 0, -10 -10" transform="rotate(180,90,250)"/><circle cx="90" cy="270" r="5" transform="rotate(0,90,270)"/><rect x="95" y="15" width="10" height="10" transform="rotate(0,100,20)"/><path d="M 95 25v 10h 5a 5 5, 0, 0, 0, 0 -10" transform="rotate(90,100,30)"/><rect x="95" y="45" width="10" height="10" transform="rotate(0,100,50)"/><path d="M 95 55v 10h 5a 5 5, 0, 0, 0, 0 -10" transform="rotate(90,100,60)"/><circle cx="100" cy="80" r="5" transform="rotate(0,100,80)"/><path d="M 95 95v 10h 10a 10 10, 0, 0, 0, -10 -10" transform="rotate(-90,100,100)"/><path d="M 95 105v 10h 5a 5 5, 0, 0, 0, 0 -10" transform="rotate(90,100,110)"/><rect x="95" y="135" width="10" height="10" transform="rotate(0,100,140)"/><rect x="95" y="145" width="10" height="10" transform="rotate(0,100,150)"/><path d="M 95 165v 10h 5a 5 5, 0, 0, 0, 0 -10" transform="rotate(0,100,170)"/><path d="M 95 195v 10h 10a 10 10, 0, 0, 0, -10 -10" transform="rotate(0,100,200)"/><rect x="95" y="205" width="10" height="10" transform="rotate(0,100,210)"/><rect x="95" y="215" width="10" height="10" transform="rotate(0,100,220)"/><rect x="95" y="235" width="10" height="10" transform="rotate(0,100,240)"/><rect x="95" y="245" width="10" height="10" transform="rotate(0,100,250)"/><path d="M 95 275v 10h 5a 5 5, 0, 0, 0, 0 -10" transform="rotate(-90,100,280)"/><path d="M 95 285v 10h 10a 10 10, 0, 0, 0, -10 -10" transform="rotate(180,100,290)"/><path d="M 105 5v 10h 5a 5 5, 0, 0, 0, 0 -10" transform="rotate(-90,110,10)"/><rect x="105" y="15" width="10" height="10" transform="rotate(0,110,20)"/><rect x="105" y="45" width="10" height="10" transform="rotate(0,110,50)"/><circle cx="110" cy="70" r="5" transform="rotate(0,110,70)"/><path d="M 105 85v 10h 10a 10 10, 0, 0, 0, -10 -10" transform="rotate(-90,110,90)"/><rect x="105" y="95" width="10" height="10" transform="rotate(0,110,100)"/><path d="M 105 125v 10h 10a 10 10, 0, 0, 0, -10 -10" transform="rotate(-90,110,130)"/><rect x="105" y="135" width="10" height="10" transform="rotate(0,110,140)"/><rect x="105" y="145" width="10" height="10" transform="rotate(0,110,150)"/><path d="M 105 155v 10h 10a 10 10, 0, 0, 0, -10 -10" transform="rotate(180,110,160)"/><path d="M 105 175v 10h 5a 5 5, 0, 0, 0, 0 -10" transform="rotate(180,110,180)"/><rect x="105" y="215" width="10" height="10" transform="rotate(0,110,220)"/><rect x="105" y="235" width="10" height="10" transform="rotate(0,110,240)"/><rect x="105" y="245" width="10" height="10" transform="rotate(0,110,250)"/><rect x="105" y="255" width="10" height="10" transform="rotate(0,110,260)"/><path d="M 105 265v 10h 5a 5 5, 0, 0, 0, 0 -10" transform="rotate(90,110,270)"/><rect x="105" y="285" width="10" height="10" transform="rotate(0,110,290)"/><path d="M 115 15v 10h 10a 10 10, 0, 0, 0, -10 -10" transform="rotate(0,120,20)"/><path d="M 115 25v 10h 10a 10 10, 0, 0, 0, -10 -10" transform="rotate(180,120,30)"/><rect x="115" y="45" width="10" height="10" transform="rotate(0,120,50)"/><path d="M 115 55v 10h 5a 5 5, 0, 0, 0, 0 -10" transform="rotate(90,120,60)"/><rect x="115" y="85" width="10" height="10" transform="rotate(0,120,90)"/><path d="M 115 95v 10h 10a 10 10, 0, 0, 0, -10 -10" transform="rotate(90,120,100)"/><path d="M 115 115v 10h 10a 10 10, 0, 0, 0, -10 -10" transform="rotate(-90,120,120)"/><rect x="115" y="125" width="10" height="10" transform="rotate(0,120,130)"/><rect x="115" y="135" width="10" height="10" transform="rotate(0,120,140)"/><rect x="115" y="155" width="10" height="10" transform="rotate(0,120,160)"/><rect x="115" y="175" width="10" height="10" transform="rotate(0,120,180)"/><path d="M 115 185v 10h 5a 5 5, 0, 0, 0, 0 -10" transform="rotate(90,120,190)"/><path d="M 115 205v 10h 10a 10 10, 0, 0, 0, -10 -10" transform="rotate(-90,120,210)"/><path d="M 115 215v 10h 10a 10 10, 0, 0, 0, -10 -10" transform="rotate(90,120,220)"/><rect x="115" y="235" width="10" height="10" transform="rotate(0,120,240)"/><rect x="115" y="245" width="10" height="10" transform="rotate(0,120,250)"/><rect x="115" y="255" width="10" height="10" transform="rotate(0,120,260)"/><path d="M 115 275v 10h 5a 5 5, 0, 0, 0, 0 -10" transform="rotate(-90,120,280)"/><rect x="115" y="285" width="10" height="10" transform="rotate(0,120,290)"/><path d="M 125 25v 10h 5a 5 5, 0, 0, 0, 0 -10" transform="rotate(0,130,30)"/><path d="M 125 45v 10h 5a 5 5, 0, 0, 0, 0 -10" transform="rotate(0,130,50)"/><path d="M 125 65v 10h 5a 5 5, 0, 0, 0, 0 -10" transform="rotate(-90,130,70)"/><rect x="125" y="75" width="10" height="10" transform="rotate(0,130,80)"/><rect x="125" y="85" width="10" height="10" transform="rotate(0,130,90)"/><path d="M 125 115v 10h 5a 5 5, 0, 0, 0, 0 -10" transform="rotate(0,130,120)"/><rect x="125" y="135" width="10" height="10" transform="rotate(0,130,140)"/><rect x="125" y="145" width="10" height="10" transform="rotate(0,130,150)"/><rect x="125" y="155" width="10" height="10" transform="rotate(0,130,160)"/><rect x="125" y="165" width="10" height="10" transform="rotate(0,130,170)"/><rect x="125" y="175" width="10" height="10" transform="rotate(0,130,180)"/><path d="M 125 195v 10h 5a 5 5, 0, 0, 0, 0 -10" transform="rotate(-90,130,200)"/><path d="M 125 205v 10h 10a 10 10, 0, 0, 0, -10 -10" transform="rotate(90,130,210)"/><path d="M 125 235v 10h 5a 5 5, 0, 0, 0, 0 -10" transform="rotate(0,130,240)"/><path d="M 125 255v 10h 5a 5 5, 0, 0, 0, 0 -10" transform="rotate(0,130,260)"/><rect x="125" y="285" width="10" height="10" transform="rotate(0,130,290)"/><circle cx="140" cy="20" r="5" transform="rotate(0,140,20)"/><circle cx="140" cy="60" r="5" transform="rotate(0,140,60)"/><rect x="135" y="75" width="10" height="10" transform="rotate(0,140,80)"/><rect x="135" y="85" width="10" height="10" transform="rotate(0,140,90)"/><path d="M 135 95v 10h 5a 5 5, 0, 0, 0, 0 -10" transform="rotate(90,140,100)"/><rect x="135" y="135" width="10" height="10" transform="rotate(0,140,140)"/><rect x="135" y="165" width="10" height="10" transform="rotate(0,140,170)"/><path d="M 135 175v 10h 10a 10 10, 0, 0, 0, -10 -10" transform="rotate(90,140,180)"/><circle cx="140" cy="230" r="5" transform="rotate(0,140,230)"/><path d="M 135 245v 10h 5a 5 5, 0, 0, 0, 0 -10" transform="rotate(180,140,250)"/><circle cx="140" cy="270" r="5" transform="rotate(0,140,270)"/><rect x="135" y="285" width="10" height="10" transform="rotate(0,140,290)"/><circle cx="150" cy="30" r="5" transform="rotate(0,150,30)"/><path d="M 145 45v 10h 5a 5 5, 0, 0, 0, 0 -10" transform="rotate(180,150,50)"/><path d="M 145 65v 10h 5a 5 5, 0, 0, 0, 0 -10" transform="rotate(-90,150,70)"/><rect x="145" y="75" width="10" height="10" transform="rotate(0,150,80)"/><rect x="145" y="85" width="10" height="10" transform="rotate(0,150,90)"/><path d="M 145 105v 10h 5a 5 5, 0, 0, 0, 0 -10" transform="rotate(180,150,110)"/><rect x="145" y="135" width="10" height="10" transform="rotate(0,150,140)"/><path d="M 145 155v 10h 5a 5 5, 0, 0, 0, 0 -10" transform="rotate(-90,150,160)"/><rect x="145" y="165" width="10" height="10" transform="rotate(0,150,170)"/><circle cx="150" cy="190" r="5" transform="rotate(0,150,190)"/><path d="M 145 205v 10h 10a 10 10, 0, 0, 0, -10 -10" transform="rotate(-90,150,210)"/><path d="M 145 215v 10h 10a 10 10, 0, 0, 0, -10 -10" transform="rotate(180,150,220)"/><path d="M 145 245v 10h 5a 5 5, 0, 0, 0, 0 -10" transform="rotate(0,150,250)"/><path d="M 145 275v 10h 5a 5 5, 0, 0, 0, 0 -10" transform="rotate(-90,150,280)"/><rect x="145" y="285" width="10" height="10" transform="rotate(0,150,290)"/><path d="M 155 45v 10h 10a 10 10, 0, 0, 0, -10 -10" transform="rotate(0,160,50)"/><path d="M 155 55v 10h 10a 10 10, 0, 0, 0, -10 -10" transform="rotate(180,160,60)"/><path d="M 155 75v 10h 10a 10 10, 0, 0, 0, -10 -10" transform="rotate(0,160,80)"/><rect x="155" y="85" width="10" height="10" transform="rotate(0,160,90)"/><rect x="155" y="95" width="10" height="10" transform="rotate(0,160,100)"/><rect x="155" y="105" width="10" height="10" transform="rotate(0,160,110)"/><path d="M 155 115v 10h 10a 10 10, 0, 0, 0, -10 -10" transform="rotate(180,160,120)"/><path d="M 155 135v 10h 5a 5 5, 0, 0, 0, 0 -10" transform="rotate(0,160,140)"/><rect x="155" y="165" width="10" height="10" transform="rotate(0,160,170)"/><path d="M 155 205v 10h 10a 10 10, 0, 0, 0, -10 -10" transform="rotate(0,160,210)"/><rect x="155" y="215" width="10" height="10" transform="rotate(0,160,220)"/><rect x="155" y="225" width="10" height="10" transform="rotate(0,160,230)"/><path d="M 155 235v 10h 10a 10 10, 0, 0, 0, -10 -10" transform="rotate(180,160,240)"/><circle cx="160" cy="260" r="5" transform="rotate(0,160,260)"/><rect x="155" y="285" width="10" height="10" transform="rotate(0,160,290)"/><path d="M 165 5v 10h 5a 5 5, 0, 0, 0, 0 -10" transform="rotate(180,170,10)"/><path d="M 165 25v 10h 5a 5 5, 0, 0, 0, 0 -10" transform="rotate(180,170,30)"/><rect x="165" y="55" width="10" height="10" transform="rotate(0,170,60)"/><path d="M 165 65v 10h 5a 5 5, 0, 0, 0, 0 -10" transform="rotate(90,170,70)"/><rect x="165" y="85" width="10" height="10" transform="rotate(0,170,90)"/><path d="M 165 95v 10h 10a 10 10, 0, 0, 0, -10 -10" transform="rotate(90,170,100)"/><rect x="165" y="115" width="10" height="10" transform="rotate(0,170,120)"/><path d="M 165 125v 10h 5a 5 5, 0, 0, 0, 0 -10" transform="rotate(90,170,130)"/><path d="M 165 155v 10h 5a 5 5, 0, 0, 0, 0 -10" transform="rotate(-90,170,160)"/><path d="M 165 165v 10h 10a 10 10, 0, 0, 0, -10 -10" transform="rotate(90,170,170)"/><path d="M 165 215v 10h 5a 5 5, 0, 0, 0, 0 -10" transform="rotate(0,170,220)"/><rect x="165" y="235" width="10" height="10" transform="rotate(0,170,240)"/><path d="M 165 275v 10h 5a 5 5, 0, 0, 0, 0 -10" transform="rotate(-90,170,280)"/><rect x="165" y="285" width="10" height="10" transform="rotate(0,170,290)"/><path d="M 175 5v 10h 5a 5 5, 0, 0, 0, 0 -10" transform="rotate(0,180,10)"/><path d="M 175 25v 10h 10a 10 10, 0, 0, 0, -10 -10" transform="rotate(0,180,30)"/><rect x="175" y="35" width="10" height="10" transform="rotate(0,180,40)"/><rect x="175" y="45" width="10" height="10" transform="rotate(0,180,50)"/><rect x="175" y="55" width="10" height="10" transform="rotate(0,180,60)"/><rect x="175" y="85" width="10" height="10" transform="rotate(0,180,90)"/><path d="M 175 105v 10h 5a 5 5, 0, 0, 0, 0 -10" transform="rotate(-90,180,110)"/><rect x="175" y="115" width="10" height="10" transform="rotate(0,180,120)"/><path d="M 175 135v 10h 5a 5 5, 0, 0, 0, 0 -10" transform="rotate(180,180,140)"/><circle cx="180" cy="190" r="5" transform="rotate(0,180,190)"/><circle cx="180" cy="210" r="5" transform="rotate(0,180,210)"/><path d="M 175 235v 10h 10a 10 10, 0, 0, 0, -10 -10" transform="rotate(0,180,240)"/><path d="M 175 245v 10h 10a 10 10, 0, 0, 0, -10 -10" transform="rotate(180,180,250)"/><path d="M 175 265v 10h 5a 5 5, 0, 0, 0, 0 -10" transform="rotate(180,180,270)"/><rect x="175" y="285" width="10" height="10" transform="rotate(0,180,290)"/><rect x="185" y="45" width="10" height="10" transform="rotate(0,190,50)"/><rect x="185" y="55" width="10" height="10" transform="rotate(0,190,60)"/><rect x="185" y="65" width="10" height="10" transform="rotate(0,190,70)"/><rect x="185" y="75" width="10" height="10" transform="rotate(0,190,80)"/><path d="M 185 85v 10h 10a 10 10, 0, 0, 0, -10 -10" transform="rotate(90,190,90)"/><rect x="185" y="115" width="10" height="10" transform="rotate(0,190,120)"/><rect x="185" y="135" width="10" height="10" transform="rotate(0,190,140)"/><path d="M 185 155v 10h 5a 5 5, 0, 0, 0, 0 -10" transform="rotate(180,190,160)"/><path d="M 185 245v 10h 10a 10 10, 0, 0, 0, -10 -10" transform="rotate(0,190,250)"/><rect x="185" y="255" width="10" height="10" transform="rotate(0,190,260)"/><path d="M 185 265v 10h 10a 10 10, 0, 0, 0, -10 -10" transform="rotate(90,190,270)"/><path d="M 185 285v 10h 5a 5 5, 0, 0, 0, 0 -10" transform="rotate(0,190,290)"/><path d="M 195 25v 10h 5a 5 5, 0, 0, 0, 0 -10" transform="rotate(180,200,30)"/><rect x="195" y="45" width="10" height="10" transform="rotate(0,200,50)"/><path d="M 195 75v 10h 5a 5 5, 0, 0, 0, 0 -10" transform="rotate(0,200,80)"/><rect x="195" y="115" width="10" height="10" transform="rotate(0,200,120)"/><rect x="195" y="135" width="10" height="10" transform="rotate(0,200,140)"/><path d="M 195 155v 10h 10a 10 10, 0, 0, 0, -10 -10" transform="rotate(0,200,160)"/><rect x="195" y="165" width="10" height="10" transform="rotate(0,200,170)"/><path d="M 195 175v 10h 10a 10 10, 0, 0, 0, -10 -10" transform="rotate(180,200,180)"/><circle cx="200" cy="200" r="5" transform="rotate(0,200,200)"/><path d="M 195 235v 10h 5a 5 5, 0, 0, 0, 0 -10" transform="rotate(180,200,240)"/><rect x="195" y="255" width="10" height="10" transform="rotate(0,200,260)"/><circle cx="200" cy="280" r="5" transform="rotate(0,200,280)"/><path d="M 205 5v 10h 5a 5 5, 0, 0, 0, 0 -10" transform="rotate(-90,210,10)"/><rect x="205" y="15" width="10" height="10" transform="rotate(0,210,20)"/><path d="M 205 25v 10h 10a 10 10, 0, 0, 0, -10 -10" transform="rotate(90,210,30)"/><path d="M 205 45v 10h 10a 10 10, 0, 0, 0, -10 -10" transform="rotate(0,210,50)"/><rect x="205" y="55" width="10" height="10" transform="rotate(0,210,60)"/><path d="M 205 65v 10h 5a 5 5, 0, 0, 0, 0 -10" transform="rotate(90,210,70)"/><path d="M 205 105v 10h 10a 10 10, 0, 0, 0, -10 -10" transform="rotate(-90,210,110)"/><rect x="205" y="115" width="10" height="10" transform="rotate(0,210,120)"/><rect x="205" y="125" width="10" height="10" transform="rotate(0,210,130)"/><rect x="205" y="135" width="10" height="10" transform="rotate(0,210,140)"/><path d="M 205 175v 10h 10a 10 10, 0, 0, 0, -10 -10" transform="rotate(0,210,180)"/><path d="M 205 185v 10h 10a 10 10, 0, 0, 0, -10 -10" transform="rotate(180,210,190)"/><path d="M 205 205v 10h 10a 10 10, 0, 0, 0, -10 -10" transform="rotate(-90,210,210)"/><rect x="205" y="215" width="10" height="10" transform="rotate(0,210,220)"/><rect x="205" y="225" width="10" height="10" transform="rotate(0,210,230)"/><rect x="205" y="235" width="10" height="10" transform="rotate(0,210,240)"/><rect x="205" y="245" width="10" height="10" transform="rotate(0,210,250)"/><rect x="205" y="255" width="10" height="10" transform="rotate(0,210,260)"/><path d="M 205 265v 10h 10a 10 10, 0, 0, 0, -10 -10" transform="rotate(180,210,270)"/><path d="M 205 285v 10h 5a 5 5, 0, 0, 0, 0 -10" transform="rotate(180,210,290)"/><circle cx="220" cy="90" r="5" transform="rotate(0,220,90)"/><path d="M 215 105v 10h 5a 5 5, 0, 0, 0, 0 -10" transform="rotate(0,220,110)"/><rect x="215" y="125" width="10" height="10" transform="rotate(0,220,130)"/><rect x="215" y="135" width="10" height="10" transform="rotate(0,220,140)"/><rect x="215" y="145" width="10" height="10" transform="rotate(0,220,150)"/><rect x="215" y="155" width="10" height="10" transform="rotate(0,220,160)"/><path d="M 215 165v 10h 5a 5 5, 0, 0, 0, 0 -10" transform="rotate(90,220,170)"/><path d="M 215 185v 10h 10a 10 10, 0, 0, 0, -10 -10" transform="rotate(0,220,190)"/><rect x="215" y="195" width="10" height="10" transform="rotate(0,220,200)"/><rect x="215" y="205" width="10" height="10" transform="rotate(0,220,210)"/><rect x="215" y="245" width="10" height="10" transform="rotate(0,220,250)"/><path d="M 215 265v 10h 5a 5 5, 0, 0, 0, 0 -10" transform="rotate(0,220,270)"/><rect x="215" y="285" width="10" height="10" transform="rotate(0,220,290)"/><path d="M 225 115v 10h 10a 10 10, 0, 0, 0, -10 -10" transform="rotate(-90,230,120)"/><rect x="225" y="125" width="10" height="10" transform="rotate(0,230,130)"/><path d="M 225 135v 10h 10a 10 10, 0, 0, 0, -10 -10" transform="rotate(90,230,140)"/><path d="M 225 155v 10h 5a 5 5, 0, 0, 0, 0 -10" transform="rotate(0,230,160)"/><path d="M 225 175v 10h 5a 5 5, 0, 0, 0, 0 -10" transform="rotate(180,230,180)"/><rect x="225" y="195" width="10" height="10" transform="rotate(0,230,200)"/><rect x="225" y="205" width="10" height="10" transform="rotate(0,230,210)"/><circle cx="230" cy="230" r="5" transform="rotate(0,230,230)"/><rect x="225" y="245" width="10" height="10" transform="rotate(0,230,250)"/><path d="M 225 285v 10h 5a 5 5, 0, 0, 0, 0 -10" transform="rotate(0,230,290)"/><rect x="235" y="115" width="10" height="10" transform="rotate(0,240,120)"/><path d="M 235 125v 10h 10a 10 10, 0, 0, 0, -10 -10" transform="rotate(90,240,130)"/><path d="M 235 145v 10h 5a 5 5, 0, 0, 0, 0 -10" transform="rotate(180,240,150)"/><path d="M 235 165v 10h 5a 5 5, 0, 0, 0, 0 -10" transform="rotate(-90,240,170)"/><rect x="235" y="175" width="10" height="10" transform="rotate(0,240,180)"/><rect x="235" y="185" width="10" height="10" transform="rotate(0,240,190)"/><rect x="235" y="195" width="10" height="10" transform="rotate(0,240,200)"/><rect x="235" y="205" width="10" height="10" transform="rotate(0,240,210)"/><rect x="235" y="245" width="10" height="10" transform="rotate(0,240,250)"/><path d="M 235 255v 10h 5a 5 5, 0, 0, 0, 0 -10" transform="rotate(90,240,260)"/><path d="M 245 85v 10h 5a 5 5, 0, 0, 0, 0 -10" transform="rotate(-90,250,90)"/><path d="M 245 95v 10h 5a 5 5, 0, 0, 0, 0 -10" transform="rotate(90,250,100)"/><rect x="245" y="115" width="10" height="10" transform="rotate(0,250,120)"/><path d="M 245 135v 10h 10a 10 10, 0, 0, 0, -10 -10" transform="rotate(-90,250,140)"/><rect x="245" y="145" width="10" height="10" transform="rotate(0,250,150)"/><path d="M 245 185v 10h 10a 10 10, 0, 0, 0, -10 -10" transform="rotate(0,250,190)"/><rect x="245" y="195" width="10" height="10" transform="rotate(0,250,200)"/><rect x="245" y="205" width="10" height="10" transform="rotate(0,250,210)"/><rect x="245" y="215" width="10" height="10" transform="rotate(0,250,220)"/><rect x="245" y="225" width="10" height="10" transform="rotate(0,250,230)"/><rect x="245" y="235" width="10" height="10" transform="rotate(0,250,240)"/><path d="M 245 245v 10h 10a 10 10, 0, 0, 0, -10 -10" transform="rotate(90,250,250)"/><path d="M 245 275v 10h 10a 10 10, 0, 0, 0, -10 -10" transform="rotate(-90,250,280)"/><path d="M 245 285v 10h 5a 5 5, 0, 0, 0, 0 -10" transform="rotate(90,250,290)"/><path d="M 255 105v 10h 10a 10 10, 0, 0, 0, -10 -10" transform="rotate(-90,260,110)"/><rect x="255" y="115" width="10" height="10" transform="rotate(0,260,120)"/><rect x="255" y="135" width="10" height="10" transform="rotate(0,260,140)"/><rect x="255" y="145" width="10" height="10" transform="rotate(0,260,150)"/><path d="M 255 165v 10h 10a 10 10, 0, 0, 0, -10 -10" transform="rotate(-90,260,170)"/><path d="M 255 175v 10h 5a 5 5, 0, 0, 0, 0 -10" transform="rotate(90,260,180)"/><path d="M 255 235v 10h 5a 5 5, 0, 0, 0, 0 -10" transform="rotate(0,260,240)"/><path d="M 255 255v 10h 5a 5 5, 0, 0, 0, 0 -10" transform="rotate(180,260,260)"/><rect x="255" y="275" width="10" height="10" transform="rotate(0,260,280)"/><path d="M 265 105v 10h 10a 10 10, 0, 0, 0, -10 -10" transform="rotate(0,270,110)"/><path d="M 265 115v 10h 10a 10 10, 0, 0, 0, -10 -10" transform="rotate(90,270,120)"/><path d="M 265 135v 10h 10a 10 10, 0, 0, 0, -10 -10" transform="rotate(0,270,140)"/><rect x="265" y="145" width="10" height="10" transform="rotate(0,270,150)"/><path d="M 265 165v 10h 5a 5 5, 0, 0, 0, 0 -10" transform="rotate(0,270,170)"/><path d="M 265 185v 10h 5a 5 5, 0, 0, 0, 0 -10" transform="rotate(-90,270,190)"/><rect x="265" y="195" width="10" height="10" transform="rotate(0,270,200)"/><rect x="265" y="205" width="10" height="10" transform="rotate(0,270,210)"/><path d="M 265 215v 10h 5a 5 5, 0, 0, 0, 0 -10" transform="rotate(90,270,220)"/><rect x="265" y="255" width="10" height="10" transform="rotate(0,270,260)"/><rect x="265" y="275" width="10" height="10" transform="rotate(0,270,280)"/><path d="M 265 285v 10h 10a 10 10, 0, 0, 0, -10 -10" transform="rotate(180,270,290)"/><path d="M 275 85v 10h 5a 5 5, 0, 0, 0, 0 -10" transform="rotate(-90,280,90)"/><path d="M 275 95v 10h 10a 10 10, 0, 0, 0, -10 -10" transform="rotate(180,280,100)"/><circle cx="280" cy="130" r="5" transform="rotate(0,280,130)"/><path d="M 275 145v 10h 5a 5 5, 0, 0, 0, 0 -10" transform="rotate(0,280,150)"/><path d="M 275 175v 10h 5a 5 5, 0, 0, 0, 0 -10" transform="rotate(180,280,180)"/><circle cx="280" cy="240" r="5" transform="rotate(0,280,240)"/><rect x="275" y="255" width="10" height="10" transform="rotate(0,280,260)"/><rect x="275" y="275" width="10" height="10" transform="rotate(0,280,280)"/><path d="M 275 285v 10h 10a 10 10, 0, 0, 0, -10 -10" transform="rotate(90,280,290)"/><path d="M 285 95v 10h 10a 10 10, 0, 0, 0, -10 -10" transform="rotate(0,290,100)"/><path d="M 285 105v 10h 5a 5 5, 0, 0, 0, 0 -10" transform="rotate(90,290,110)"/><circle cx="290" cy="140" r="5" transform="rotate(0,290,140)"/><circle cx="290" cy="160" r="5" transform="rotate(0,290,160)"/><path d="M 285 175v 10h 5a 5 5, 0, 0, 0, 0 -10" transform="rotate(0,290,180)"/><path d="M 285 205v 10h 5a 5 5, 0, 0, 0, 0 -10" transform="rotate(-90,290,210)"/><path d="M 285 215v 10h 5a 5 5, 0, 0, 0, 0 -10" transform="rotate(90,290,220)"/><path d="M 285 245v 10h 5a 5 5, 0, 0, 0, 0 -10" transform="rotate(-90,290,250)"/><rect x="285" y="255" width="10" height="10" transform="rotate(0,290,260)"/><rect x="285" y="265" width="10" height="10" transform="rotate(0,290,270)"/><path d="M 285 275v 10h 10a 10 10, 0, 0, 0, -10 -10" transform="rotate(90,290,280)"/></g><g class="corners-square-color-0-0"><path clip-rule="evenodd" d="M 5 30v 20a 25 25, 0, 0, 0, 25 25h 20a 25 25, 0, 0, 0, 25 -25v -20a 25 25, 0, 0, 0, -25 -25h -20a 25 25, 0, 0, 0, -25 25M 30 15h 20a 15 15, 0, 0, 1, 15 15v 20a 15 15, 0, 0, 1, -15 15h -20a 15 15, 0, 0, 1, -15 -15v -20a 15 15, 0, 0, 1, 15 -15" transform="rotate(0,40,40)"/></g><g class="corners-dot-color-0-0"><circle cx="40" cy="40" r="15" transform="rotate(0,40,40)"/></g><g class="corners-square-color-1-0"><path clip-rule="evenodd" d="M 225 30v 20a 25 25, 0, 0, 0, 25 25h 20a 25 25, 0, 0, 0, 25 -25v -20a 25 25, 0, 0, 0, -25 -25h -20a 25 25, 0, 0, 0, -25 25M 250 15h 20a 15 15, 0, 0, 1, 15 15v 20a 15 15, 0, 0, 1, -15 15h -20a 15 15, 0, 0, 1, -15 -15v -20a 15 15, 0, 0, 1, 15 -15" transform="rotate(90,260,40)"/></g><g class="corners-dot-color-1-0"><circle cx="260" cy="40" r="15" transform="rotate(90,260,40)"/></g><g class="corners-square-color-0-1"><path clip-rule="evenodd" d="M 5 250v 20a 25 25, 0, 0, 0, 25 25h 20a 25 25, 0, 0, 0, 25 -25v -20a 25 25, 0, 0, 0, -25 -25h -20a 25 25, 0, 0, 0, -25 25M 30 235h 20a 15 15, 0, 0, 1, 15 15v 20a 15 15, 0, 0, 1, -15 15h -20a 15 15, 0, 0, 1, -15 -15v -20a 15 15, 0, 0, 1, 15 -15" transform="rotate(-90,40,260)"/></g><g class="corners-dot-color-0-1"><circle cx="40" cy="260" r="15" transform="rotate(-90,40,260)"/></g></svg></g></g></svg></svg>