<?xml version="1.0" standalone="no"?>
<!DOCTYPE svg PUBLIC "-//W3C//DTD SVG 20010904//EN"
 "http://www.w3.org/TR/2001/REC-SVG-20010904/DTD/svg10.dtd">
<svg version="1.0" xmlns="http://www.w3.org/2000/svg"
 width="117.000000pt" height="33.000000pt" viewBox="0 0 117.000000 33.000000"
 preserveAspectRatio="xMidYMid meet">
<metadata>
Created by potrace 1.16, written by Peter Selinger 2001-2019
</metadata>
<g transform="translate(0.000000,33.000000) scale(0.023400,-0.006600)"
fill="#000000" stroke="none">
<path d="M2326 3954 c-195 -42 -388 -154 -509 -296 -50 -59 -137 -195 -137
-215 0 -7 -10 -12 -22 -10 -19 2 -26 -8 -45 -62 -25 -69 -45 -184 -36 -207 3
-8 11 -14 18 -14 9 0 13 -12 12 -37 -2 -59 4 -149 10 -136 2 7 37 22 76 34 40
12 116 43 169 70 l97 49 24 -25 23 -26 19 21 c24 26 78 27 105 0 25 -25 25
-60 0 -111 l-21 -39 24 -33 c13 -17 27 -37 31 -44 6 -11 -22 -28 -295 -172
l-117 -61 -21 36 c-32 54 -52 105 -45 116 3 5 -1 15 -10 21 -8 7 -24 44 -35
82 -24 84 -28 67 -5 -22 18 -73 19 -72 -60 -128 -31 -22 -56 -43 -56 -47 0
-19 38 -5 86 32 29 22 55 40 58 40 3 0 20 -31 39 -68 l35 -68 -39 -22 c-37
-21 -51 -42 -29 -42 6 0 28 9 49 20 l38 19 46 -59 c100 -129 295 -253 472
-302 67 -18 106 -21 240 -21 144 0 169 2 248 26 311 95 534 314 623 614 22 75
26 107 27 223 0 144 -11 206 -60 330 l-26 64 42 36 c64 55 48 72 -22 23 -34
-24 -40 -25 -48 -11 -5 8 -27 39 -49 69 -22 29 -40 56 -40 59 0 13 315 139
388 155 24 5 32 3 32 -8 0 -17 -65 -86 -135 -144 -27 -23 -47 -45 -42 -49 11
-11 48 12 119 77 66 58 95 106 84 134 -14 37 -137 7 -364 -90 l-113 -48 -42
40 c-23 22 -60 53 -82 69 -22 16 -5 -4 38 -45 42 -40 77 -79 77 -87 0 -8 5
-14 11 -14 12 0 31 -20 49 -52 9 -14 0 -23 -53 -52 -90 -51 -101 -65 -94 -124
l6 -48 -125 -79 c-68 -43 -124 -85 -124 -92 0 -7 4 -13 8 -13 5 0 60 33 123
73 63 40 119 76 126 80 15 9 132 -167 133 -198 0 -30 -27 -63 -70 -85 -65 -33
-66 -87 0 -184 22 -32 40 -69 40 -82 0 -37 -56 -87 -155 -139 -269 -142 -357
-185 -378 -185 -68 0 -100 80 -53 131 l24 27 -35 52 c-19 29 -38 70 -40 90 -7
51 27 112 76 137 20 10 38 19 39 20 2 1 -12 29 -32 63 -20 33 -36 63 -36 65 0
2 47 28 105 57 58 29 105 58 105 65 0 21 -17 16 -120 -38 l-98 -51 -29 22
c-26 18 -33 20 -56 9 -24 -11 -30 -10 -51 10 -39 37 -86 134 -86 178 0 49 6
55 138 129 130 72 141 93 89 167 -18 27 -23 28 -64 22 -51 -7 -65 1 -94 56
-26 52 -25 104 4 133 12 12 67 49 121 81 79 47 95 60 80 66 -33 13 -256 8
-328 -7z m-505 -445 c27 -27 51 -60 55 -73 3 -15 -8 -46 -34 -95 l-40 -73 -18
31 c-23 39 -29 39 -43 0 -9 -26 -8 -35 9 -56 33 -42 26 -68 -27 -104 -27 -18
-61 -44 -77 -58 l-29 -26 7 92 c4 50 16 127 27 170 24 90 92 243 109 243 6 0
33 -23 61 -51z m384 -709 c8 -16 15 -47 15 -70 0 -42 -7 -51 -73 -106 -37 -31
-43 -66 -20 -111 11 -21 32 -62 47 -91 35 -67 44 -119 23 -127 -15 -6 -129 46
-204 93 -31 19 -43 35 -48 59 -9 49 -57 99 -103 106 -27 5 -42 14 -54 35 l-17
28 62 32 c34 18 125 66 202 107 77 41 143 74 147 75 4 0 14 -13 23 -30z"/>
<path d="M2217 2020 c-31 -25 -51 -80 -42 -118 3 -15 55 -110 114 -212 114
-196 137 -221 205 -223 19 0 52 7 74 17 37 17 50 35 151 211 87 150 111 200
111 229 0 74 -40 115 -111 116 -63 0 -86 -20 -153 -140 -32 -55 -60 -100 -64
-100 -4 0 -34 48 -67 106 -33 58 -69 112 -80 120 -30 21 -107 18 -138 -6z"/>
<path d="M2305 1345 c-14 -13 -25 -36 -25 -51 0 -27 129 -263 163 -296 21 -22
84 -24 114 -3 22 15 173 271 173 293 0 34 -31 71 -65 78 -48 9 -75 -11 -117
-87 -19 -35 -38 -64 -44 -66 -5 -2 -25 25 -43 58 -19 34 -42 70 -53 81 -26 26
-74 23 -103 -7z"/>
</g>
</svg>
